<svg xmlns="http://www.w3.org/2000/svg" xmlns:xlink="http://www.w3.org/1999/xlink" width="1024" zoomAndPan="magnify" viewBox="0 0 768 767.999994" height="1024" preserveAspectRatio="xMidYMid meet" version="1.0"><defs><g/><clipPath id="1e57b30077"><path d="M 101.589844 378 L 130 378 L 130 426 L 101.589844 426 Z M 101.589844 378 " clip-rule="nonzero"/></clipPath><clipPath id="f502d76c27"><path d="M 160.765625 426.074219 L 173.753906 426.074219 L 173.753906 433.429688 L 160.765625 433.429688 Z M 160.765625 426.074219 " clip-rule="nonzero"/></clipPath><clipPath id="856ec6c56c"><path d="M 223.097656 341.296875 L 272.589844 341.296875 L 272.589844 387.300781 L 223.097656 387.300781 Z M 223.097656 341.296875 " clip-rule="nonzero"/></clipPath><clipPath id="6a4d4dd318"><path d="M 128 314.179688 L 255 314.179688 L 255 382 L 128 382 Z M 128 314.179688 " clip-rule="nonzero"/></clipPath></defs><path fill="#ffffff" d="M 180.28125 403.746094 L 180.28125 406.074219 C 182.179688 405.121094 183.578125 402.945312 184.023438 400.28125 C 182.164062 400.3125 180.578125 401.78125 180.28125 403.746094 " fill-opacity="1" fill-rule="nonzero"/><g clip-path="url(#1e57b30077)"><path fill="#ffffff" d="M 111.519531 411.441406 L 111.324219 411.351562 C 109.503906 410.527344 108.328125 408.699219 108.328125 406.703125 L 108.328125 396.546875 C 108.328125 393.730469 110.617188 391.4375 113.4375 391.4375 L 125.476562 391.4375 C 126.570312 391.4375 127.621094 391.667969 128.613281 392.121094 C 128.730469 392.171875 128.878906 392.238281 129.058594 392.3125 L 129.058594 384.261719 C 129.058594 380.878906 126.316406 378.136719 122.929688 378.136719 L 107.71875 378.136719 C 104.332031 378.136719 101.589844 380.878906 101.589844 384.261719 L 101.589844 419.628906 C 101.589844 423.011719 104.332031 425.757812 107.71875 425.757812 L 122.929688 425.757812 C 126.316406 425.757812 129.058594 423.011719 129.058594 419.628906 L 129.058594 416.117188 L 111.730469 411.5 L 111.519531 411.441406 " fill-opacity="1" fill-rule="nonzero"/></g><path fill="#ffffff" d="M 154.34375 407.585938 C 152.886719 406.375 151.742188 404.5625 151.136719 402.421875 C 143.304688 399.949219 133.363281 396.75 129.058594 395.113281 C 128.414062 394.867188 127.894531 394.65625 127.527344 394.488281 C 126.882812 394.195312 126.1875 394.042969 125.476562 394.042969 L 113.4375 394.042969 C 112.917969 394.042969 112.4375 394.199219 112.035156 394.472656 C 111.902344 394.5625 111.777344 394.664062 111.664062 394.777344 C 111.550781 394.890625 111.449219 395.011719 111.359375 395.144531 C 111.179688 395.414062 111.050781 395.714844 110.984375 396.042969 C 110.949219 396.203125 110.933594 396.375 110.933594 396.546875 L 110.933594 406.703125 C 110.933594 406.945312 110.96875 407.1875 111.035156 407.414062 C 111.105469 407.644531 111.203125 407.859375 111.332031 408.058594 C 111.585938 408.453125 111.953125 408.777344 112.402344 408.980469 L 129.058594 413.421875 L 154.445312 420.1875 L 154.34375 407.585938 " fill-opacity="1" fill-rule="nonzero"/><path fill="#ffffff" d="M 159.792969 402.921875 C 159.644531 403.1875 159.476562 403.429688 159.296875 403.644531 C 159.265625 403.6875 159.226562 403.722656 159.191406 403.761719 C 159.039062 403.929688 158.882812 404.082031 158.714844 404.210938 C 158.613281 404.289062 158.507812 404.359375 158.394531 404.425781 C 158.28125 404.488281 158.164062 404.546875 158.042969 404.59375 C 157.933594 404.636719 157.820312 404.671875 157.707031 404.699219 C 157.585938 404.730469 157.464844 404.746094 157.339844 404.757812 C 157.25 404.765625 157.160156 404.757812 157.066406 404.753906 C 157.011719 404.753906 156.953125 404.75 156.894531 404.742188 C 156.832031 404.734375 156.769531 404.722656 156.707031 404.710938 C 156.648438 404.699219 156.59375 404.6875 156.535156 404.671875 C 156.476562 404.65625 156.414062 404.636719 156.351562 404.613281 C 156.296875 404.59375 156.242188 404.574219 156.1875 404.550781 C 156.125 404.523438 156.066406 404.496094 156.007812 404.464844 C 155.953125 404.4375 155.898438 404.410156 155.847656 404.378906 C 155.785156 404.34375 155.726562 404.308594 155.671875 404.269531 C 155.652344 404.253906 155.632812 404.246094 155.613281 404.234375 C 155.582031 404.210938 155.546875 404.1875 155.515625 404.164062 C 155.460938 404.121094 155.402344 404.074219 155.347656 404.027344 C 155.296875 403.984375 155.25 403.945312 155.203125 403.902344 C 155.144531 403.851562 155.09375 403.796875 155.039062 403.742188 C 155 403.699219 154.957031 403.660156 154.914062 403.613281 C 154.851562 403.539062 154.800781 403.476562 154.75 403.417969 C 154.707031 403.363281 154.664062 403.3125 154.621094 403.257812 C 154.574219 403.191406 154.527344 403.125 154.480469 403.054688 C 154.4375 402.996094 154.398438 402.941406 154.359375 402.878906 C 154.34375 402.851562 154.324219 402.820312 154.308594 402.792969 C 154.28125 402.746094 154.253906 402.703125 154.230469 402.65625 C 154.195312 402.59375 154.15625 402.535156 154.121094 402.472656 C 154.082031 402.390625 154.042969 402.308594 154.003906 402.230469 C 153.972656 402.164062 153.9375 402.097656 153.90625 402.03125 C 153.871094 401.945312 153.835938 401.855469 153.800781 401.769531 C 153.777344 401.699219 153.746094 401.632812 153.722656 401.5625 C 153.6875 401.472656 153.660156 401.375 153.628906 401.28125 C 153.605469 401.210938 153.582031 401.144531 153.5625 401.070312 C 153.535156 400.972656 153.511719 400.867188 153.484375 400.761719 C 153.46875 400.695312 153.449219 400.628906 153.433594 400.558594 C 153.425781 400.507812 153.417969 400.457031 153.40625 400.40625 C 153.394531 400.34375 153.382812 400.273438 153.371094 400.207031 C 153.363281 400.148438 153.347656 400.085938 153.339844 400.027344 C 153.316406 399.84375 153.296875 399.664062 153.28125 399.476562 C 153.265625 399.289062 153.261719 399.101562 153.261719 398.917969 C 153.257812 398.714844 153.265625 398.515625 153.28125 398.316406 C 153.304688 397.976562 153.351562 397.640625 153.417969 397.320312 C 153.460938 397.113281 153.515625 396.910156 153.574219 396.710938 C 153.660156 396.429688 153.757812 396.164062 153.871094 395.910156 C 154.074219 395.46875 154.316406 395.078125 154.597656 394.75 C 155.136719 394.117188 155.796875 393.71875 156.53125 393.664062 C 156.625 393.65625 156.714844 393.660156 156.804688 393.664062 C 156.863281 393.667969 156.921875 393.671875 156.976562 393.679688 C 157.039062 393.6875 157.105469 393.695312 157.167969 393.710938 C 157.222656 393.722656 157.28125 393.730469 157.335938 393.746094 C 157.398438 393.765625 157.460938 393.785156 157.523438 393.808594 C 157.578125 393.828125 157.632812 393.847656 157.6875 393.871094 C 157.746094 393.894531 157.808594 393.925781 157.867188 393.957031 C 157.921875 393.984375 157.972656 394.011719 158.027344 394.039062 C 158.085938 394.074219 158.144531 394.113281 158.203125 394.152344 C 158.253906 394.1875 158.304688 394.222656 158.355469 394.257812 C 158.414062 394.300781 158.46875 394.347656 158.527344 394.394531 C 158.574219 394.4375 158.625 394.476562 158.671875 394.519531 C 158.726562 394.570312 158.78125 394.625 158.835938 394.679688 C 158.878906 394.726562 158.925781 394.773438 158.96875 394.820312 C 159.023438 394.882812 159.074219 394.941406 159.125 395.003906 C 159.167969 395.058594 159.210938 395.109375 159.25 395.164062 C 159.300781 395.230469 159.347656 395.296875 159.394531 395.367188 C 159.433594 395.425781 159.472656 395.480469 159.511719 395.539062 C 159.558594 395.613281 159.601562 395.6875 159.644531 395.765625 C 159.679688 395.824219 159.714844 395.886719 159.75 395.949219 C 159.792969 396.027344 159.832031 396.113281 159.871094 396.191406 C 159.902344 396.257812 159.933594 396.320312 159.964844 396.390625 C 160.003906 396.472656 160.035156 396.5625 160.070312 396.652344 C 160.097656 396.71875 160.125 396.785156 160.152344 396.855469 C 160.183594 396.949219 160.214844 397.042969 160.242188 397.136719 C 160.265625 397.207031 160.289062 397.277344 160.308594 397.347656 C 160.339844 397.449219 160.363281 397.550781 160.386719 397.652344 C 160.402344 397.722656 160.421875 397.792969 160.4375 397.863281 C 160.460938 397.976562 160.480469 398.09375 160.5 398.210938 C 160.511719 398.273438 160.523438 398.332031 160.53125 398.394531 C 160.554688 398.5625 160.574219 398.734375 160.585938 398.90625 C 160.589844 398.921875 160.589844 398.933594 160.589844 398.941406 C 160.6875 400.246094 160.460938 401.484375 160.011719 402.480469 C 159.945312 402.632812 159.871094 402.78125 159.792969 402.921875 Z M 175.878906 389.835938 L 146.34375 371.761719 C 149.265625 375.179688 155.003906 382.304688 156.003906 386.59375 C 156.175781 387.332031 156.539062 388.824219 156.742188 389.664062 C 156.832031 390.027344 156.890625 390.269531 156.890625 390.269531 C 156.890625 390.269531 157.695312 390.007812 158.644531 389.796875 C 158.789062 389.734375 158.933594 389.679688 159.082031 389.628906 C 159.480469 389.5 159.890625 389.410156 160.316406 389.378906 C 164.121094 389.101562 167.507812 393.042969 167.882812 398.179688 C 168.148438 401.789062 166.726562 404.835938 164.539062 406.433594 C 164.109375 406.746094 163.648438 407 163.164062 407.195312 C 162.765625 407.355469 162.355469 407.472656 161.933594 407.542969 C 161.765625 407.570312 161.59375 407.597656 161.417969 407.609375 C 161.035156 407.636719 160.660156 407.617188 160.292969 407.570312 C 160.453125 407.507812 160.613281 407.445312 160.769531 407.363281 C 161.152344 407.171875 161.515625 406.925781 161.851562 406.636719 C 161.882812 406.613281 161.90625 406.585938 161.933594 406.558594 C 162.410156 406.140625 162.835938 405.640625 163.199219 405.0625 C 163.4375 404.6875 163.644531 404.285156 163.828125 403.855469 C 163.847656 403.804688 163.871094 403.761719 163.890625 403.714844 C 163.980469 403.488281 164.066406 403.257812 164.144531 403.019531 C 164.539062 401.777344 164.714844 400.371094 164.609375 398.902344 C 164.597656 398.777344 164.582031 398.65625 164.566406 398.53125 C 164.550781 398.371094 164.539062 398.207031 164.515625 398.046875 C 164.5 397.953125 164.480469 397.863281 164.460938 397.769531 C 164.429688 397.585938 164.398438 397.398438 164.359375 397.21875 C 164.335938 397.109375 164.304688 397.003906 164.277344 396.898438 C 164.234375 396.742188 164.199219 396.582031 164.148438 396.425781 C 164.117188 396.3125 164.074219 396.207031 164.039062 396.09375 C 163.988281 395.953125 163.941406 395.808594 163.886719 395.671875 C 163.84375 395.558594 163.796875 395.453125 163.75 395.34375 C 163.691406 395.214844 163.636719 395.082031 163.578125 394.953125 C 163.523438 394.847656 163.46875 394.746094 163.414062 394.640625 C 163.347656 394.519531 163.289062 394.398438 163.21875 394.28125 C 163.160156 394.179688 163.097656 394.085938 163.035156 393.988281 C 162.964844 393.875 162.894531 393.765625 162.820312 393.65625 C 162.753906 393.5625 162.683594 393.472656 162.613281 393.382812 C 162.535156 393.28125 162.460938 393.179688 162.378906 393.085938 C 162.308594 393 162.230469 392.917969 162.15625 392.835938 C 162.074219 392.746094 161.992188 392.65625 161.90625 392.570312 C 161.828125 392.492188 161.746094 392.417969 161.664062 392.347656 C 161.578125 392.265625 161.488281 392.1875 161.398438 392.113281 C 161.371094 392.089844 161.34375 392.066406 161.316406 392.042969 C 161.261719 392 161.199219 391.960938 161.140625 391.917969 C 161.046875 391.851562 160.953125 391.78125 160.859375 391.71875 C 160.769531 391.660156 160.679688 391.609375 160.59375 391.554688 C 160.492188 391.5 160.394531 391.441406 160.292969 391.390625 C 160.203125 391.347656 160.109375 391.304688 160.015625 391.261719 C 159.914062 391.21875 159.8125 391.175781 159.707031 391.136719 C 159.613281 391.101562 159.519531 391.070312 159.421875 391.042969 C 159.316406 391.011719 159.207031 390.980469 159.101562 390.957031 C 159.003906 390.933594 158.90625 390.914062 158.808594 390.898438 C 158.699219 390.882812 158.589844 390.867188 158.476562 390.855469 C 158.378906 390.847656 158.28125 390.839844 158.179688 390.835938 C 158.011719 390.832031 157.84375 390.828125 157.675781 390.839844 C 157.398438 390.859375 157.128906 390.910156 156.867188 390.976562 C 156.117188 391.164062 155.425781 391.527344 154.808594 392.035156 C 152.910156 393.609375 151.75 396.550781 151.988281 399.824219 C 151.992188 399.871094 152 399.917969 152.003906 399.964844 C 152.023438 400.203125 152.046875 400.441406 152.082031 400.675781 C 152.097656 400.773438 152.117188 400.867188 152.136719 400.964844 C 152.167969 401.144531 152.195312 401.328125 152.234375 401.503906 C 152.261719 401.613281 152.292969 401.722656 152.320312 401.828125 C 152.359375 401.984375 152.398438 402.144531 152.445312 402.296875 C 152.480469 402.410156 152.519531 402.519531 152.558594 402.628906 C 152.589844 402.722656 152.621094 402.8125 152.65625 402.902344 C 152.671875 402.953125 152.6875 403.003906 152.707031 403.054688 C 152.75 403.164062 152.800781 403.273438 152.847656 403.382812 C 152.902344 403.511719 152.957031 403.644531 153.019531 403.769531 C 153.070312 403.878906 153.128906 403.980469 153.183594 404.082031 C 153.246094 404.203125 153.308594 404.324219 153.375 404.441406 C 153.4375 404.542969 153.5 404.640625 153.5625 404.738281 C 153.632812 404.847656 153.703125 404.960938 153.777344 405.066406 C 153.84375 405.160156 153.914062 405.25 153.984375 405.339844 C 154.058594 405.441406 154.136719 405.542969 154.214844 405.636719 C 154.253906 405.683594 154.292969 405.730469 154.332031 405.773438 C 154.367188 405.8125 154.40625 405.847656 154.441406 405.886719 C 154.523438 405.980469 154.605469 406.070312 154.691406 406.15625 C 154.769531 406.234375 154.851562 406.304688 154.933594 406.378906 C 155.019531 406.457031 155.109375 406.539062 155.199219 406.613281 C 155.28125 406.679688 155.367188 406.742188 155.453125 406.804688 C 155.546875 406.875 155.640625 406.941406 155.738281 407.003906 C 155.824219 407.0625 155.914062 407.117188 156.003906 407.167969 C 156.101562 407.226562 156.199219 407.28125 156.300781 407.332031 C 156.394531 407.378906 156.484375 407.421875 156.578125 407.460938 C 156.648438 407.492188 156.714844 407.519531 156.785156 407.546875 C 156.785156 407.554688 156.796875 408.921875 156.796875 408.921875 L 156.890625 420.839844 L 156.890625 421.050781 C 157.785156 422.46875 160.652344 423.597656 164.539062 423.96875 C 165.433594 424.054688 166.378906 424.101562 167.367188 424.101562 C 172.664062 424.101562 176.742188 422.796875 177.84375 421.050781 L 177.84375 403.5625 C 177.863281 403.402344 177.890625 403.265625 177.917969 403.128906 C 177.933594 403.046875 177.949219 402.964844 177.964844 402.882812 C 177.980469 402.8125 178.003906 402.746094 178.019531 402.675781 C 178.058594 402.53125 178.097656 402.386719 178.144531 402.246094 C 178.171875 402.167969 178.199219 402.09375 178.230469 402.015625 C 178.277344 401.890625 178.324219 401.765625 178.378906 401.644531 C 178.414062 401.566406 178.449219 401.488281 178.488281 401.414062 C 178.546875 401.296875 178.605469 401.179688 178.671875 401.066406 C 178.710938 400.992188 178.75 400.921875 178.792969 400.855469 C 178.867188 400.734375 178.945312 400.621094 179.027344 400.507812 C 179.066406 400.449219 179.105469 400.390625 179.148438 400.335938 C 179.261719 400.1875 179.378906 400.042969 179.503906 399.90625 C 179.519531 399.890625 179.53125 399.875 179.542969 399.859375 C 179.683594 399.707031 179.832031 399.5625 179.984375 399.425781 C 180.011719 399.402344 180.039062 399.378906 180.070312 399.355469 C 180.089844 399.339844 180.109375 399.324219 180.128906 399.304688 C 180.238281 399.214844 180.347656 399.121094 180.464844 399.039062 C 180.523438 398.992188 180.589844 398.953125 180.652344 398.910156 C 180.757812 398.835938 180.867188 398.765625 180.976562 398.699219 C 181.046875 398.660156 181.117188 398.621094 181.1875 398.582031 C 181.300781 398.519531 181.414062 398.464844 181.527344 398.410156 C 181.601562 398.378906 181.671875 398.34375 181.746094 398.3125 C 181.867188 398.261719 181.996094 398.214844 182.121094 398.171875 C 182.191406 398.148438 182.257812 398.121094 182.324219 398.101562 C 182.488281 398.050781 182.652344 398.011719 182.820312 397.976562 C 182.855469 397.96875 182.890625 397.957031 182.925781 397.949219 C 183.128906 397.910156 183.332031 397.882812 183.542969 397.863281 C 183.601562 397.859375 183.664062 397.859375 183.722656 397.855469 C 183.84375 397.847656 183.964844 397.835938 184.085938 397.835938 C 184.109375 397.835938 184.132812 397.839844 184.15625 397.839844 C 184.324219 397.84375 184.488281 397.859375 184.652344 397.871094 C 184.734375 397.878906 184.8125 397.882812 184.894531 397.894531 C 185.140625 397.925781 185.390625 397.972656 185.640625 398.035156 C 186.152344 398.167969 186.664062 398.300781 187.171875 398.429688 C 188.4375 398.753906 189.664062 399.070312 190.714844 399.34375 C 191.132812 399.453125 191.527344 399.554688 191.882812 399.644531 C 191.898438 399.648438 191.914062 399.652344 191.929688 399.65625 L 183.464844 394.476562 L 175.878906 389.835938 " fill-opacity="1" fill-rule="nonzero"/><g clip-path="url(#f502d76c27)"><path fill="#ffffff" d="M 173.65625 431.816406 L 173.65625 426.179688 C 171.859375 426.617188 169.675781 426.875 167.253906 426.875 C 164.828125 426.875 162.648438 426.617188 160.847656 426.179688 L 160.847656 431.816406 C 161.519531 432.882812 164.015625 433.683594 167.253906 433.683594 C 170.492188 433.683594 172.984375 432.882812 173.65625 431.816406 " fill-opacity="1" fill-rule="nonzero"/></g><path fill="#ffffff" d="M 156.433594 396.1875 C 155.683594 396.242188 154.917969 397.46875 154.921875 399.023438 C 154.921875 399.132812 154.914062 399.238281 154.921875 399.347656 C 154.96875 399.988281 155.140625 400.5625 155.382812 401.027344 C 155.785156 401.8125 156.375 402.292969 156.875 402.253906 C 156.898438 402.253906 156.921875 402.242188 156.945312 402.234375 C 157.199219 402.195312 157.453125 402.023438 157.675781 401.75 C 158.136719 401.1875 158.46875 400.210938 158.386719 399.09375 C 158.261719 397.386719 157.234375 396.128906 156.433594 396.1875 " fill-opacity="1" fill-rule="nonzero"/><g clip-path="url(#856ec6c56c)"><path fill="#ffffff" d="M 269.242188 343.964844 C 267.636719 342.511719 265.589844 341.605469 263.375 341.4375 C 263.109375 341.417969 262.835938 341.410156 262.570312 341.410156 L 258.117188 341.410156 C 258.105469 341.40625 232.054688 341.40625 232.054688 341.40625 C 231.480469 341.40625 230.941406 341.46875 230.421875 341.578125 C 227.246094 342.253906 225.035156 344.871094 223.203125 347.984375 L 251.171875 347.984375 C 251.882812 347.984375 252.5625 348.085938 253.210938 348.261719 C 254.050781 348.484375 254.828125 348.84375 255.527344 349.3125 C 258.023438 350.988281 259.480469 354.039062 258.878906 357.265625 L 253.28125 387.191406 L 254.195312 387.191406 L 254.945312 385.859375 L 271.304688 356.777344 C 273.0625 353.652344 273.097656 349.894531 271.398438 346.71875 C 270.832031 345.660156 270.097656 344.734375 269.242188 343.964844 " fill-opacity="1" fill-rule="nonzero"/></g><path fill="#ffffff" d="M 210.898438 403.125 C 210.34375 403.125 209.808594 403.0625 209.289062 402.953125 C 208.421875 402.773438 207.609375 402.453125 206.878906 402.011719 C 204.179688 400.394531 202.5625 397.210938 203.191406 393.84375 L 204.453125 387.105469 L 205.507812 381.464844 L 205.410156 381.648438 C 204.863281 382.621094 204.105469 383.394531 203.222656 383.949219 C 202.4375 384.441406 201.554688 384.75 200.644531 384.875 C 199.308594 385.058594 197.910156 384.832031 196.644531 384.128906 L 194.984375 383.214844 L 192.417969 381.804688 L 187.621094 379.164062 L 180.113281 375.03125 L 132.300781 348.71875 L 131.136719 354.9375 C 130.855469 356.453125 131.136719 357.917969 131.820312 359.144531 C 131.992188 359.449219 132.1875 359.742188 132.40625 360.015625 C 132.621094 360.285156 132.863281 360.542969 133.125 360.777344 C 133.386719 361.011719 133.667969 361.222656 133.964844 361.414062 C 134.261719 361.601562 134.578125 361.765625 134.910156 361.902344 L 143.257812 367.011719 L 149.59375 370.890625 L 193.75 397.910156 L 196.328125 399.488281 L 204.660156 404.585938 L 204.71875 404.519531 C 205.464844 404.945312 206.285156 405.253906 207.164062 405.417969 C 207.636719 405.507812 208.121094 405.566406 208.621094 405.566406 L 238.671875 405.566406 C 242.476562 405.566406 245.902344 403.65625 247.949219 400.675781 C 246.011719 402.214844 243.574219 403.125 240.949219 403.125 L 210.898438 403.125 " fill-opacity="1" fill-rule="nonzero"/><path fill="#ffffff" d="M 246.457031 380.949219 C 245.636719 383.230469 244.511719 385.324219 243.171875 387.171875 C 239.484375 392.242188 234.132812 395.445312 228.734375 395.445312 C 227.175781 395.445312 225.652344 395.183594 224.203125 394.660156 C 222.304688 393.980469 220.621094 392.890625 219.195312 391.460938 C 218.621094 390.886719 218.089844 390.253906 217.605469 389.570312 C 217.070312 388.816406 216.597656 388 216.179688 387.125 C 215.84375 386.414062 215.539062 385.667969 215.285156 384.882812 C 213.789062 380.273438 213.96875 374.960938 215.78125 369.917969 C 218.851562 361.382812 226.136719 355.421875 233.503906 355.417969 C 233.503906 355.417969 233.503906 357.523438 233.503906 357.523438 L 233.503906 355.417969 C 235.0625 355.417969 236.585938 355.683594 238.035156 356.203125 C 240.089844 356.945312 241.863281 358.160156 243.324219 359.730469 C 243.886719 360.332031 244.398438 360.984375 244.863281 361.683594 C 248.171875 366.65625 248.988281 373.910156 246.457031 380.949219 Z M 249.796875 355.960938 C 249.226562 355.378906 248.605469 354.851562 247.933594 354.386719 C 245.84375 352.9375 243.300781 352.078125 240.523438 352.078125 L 229.726562 352.078125 C 225.847656 352.078125 222.214844 353.304688 219.230469 355.414062 L 211.128906 370.792969 L 208.734375 383.597656 C 208.511719 384.789062 208.460938 385.96875 208.558594 387.113281 C 208.832031 390.335938 210.300781 393.277344 212.554688 395.429688 C 213.140625 395.992188 213.785156 396.5 214.46875 396.945312 C 216.496094 398.257812 218.917969 399.03125 221.546875 399.03125 L 232.34375 399.03125 C 240.046875 399.03125 246.785156 394.203125 249.386719 387.183594 C 249.742188 386.226562 250.023438 385.226562 250.21875 384.191406 L 253.335938 367.511719 C 254.164062 363.097656 252.667969 358.871094 249.796875 355.960938 " fill-opacity="1" fill-rule="nonzero"/><path fill="#ffffff" d="M 241.953125 361.320312 C 240.683594 359.917969 239.128906 358.832031 237.324219 358.183594 C 236.078125 357.734375 234.796875 357.523438 233.503906 357.523438 C 228.519531 357.523438 223.433594 360.71875 220.09375 365.90625 C 221.984375 364.117188 224.324219 363.070312 226.738281 363.070312 C 227.648438 363.070312 228.546875 363.222656 229.398438 363.53125 C 231.84375 364.410156 233.683594 366.414062 234.578125 369.167969 C 234.632812 369.347656 234.675781 369.527344 234.722656 369.707031 C 235.007812 370.753906 235.144531 371.855469 235.128906 372.976562 C 235.113281 374.464844 234.84375 375.988281 234.3125 377.46875 C 232.574219 382.300781 228.554688 385.546875 224.304688 385.546875 C 223.386719 385.542969 222.492188 385.390625 221.644531 385.085938 C 221.601562 385.070312 221.5625 385.046875 221.519531 385.03125 C 218.996094 384.070312 217.214844 381.878906 216.40625 379.15625 C 216.523438 382.109375 217.265625 384.855469 218.550781 387.128906 C 218.703125 387.398438 218.863281 387.660156 219.03125 387.914062 C 219.492188 388.617188 220.007812 389.269531 220.578125 389.859375 C 221.792969 391.109375 223.246094 392.082031 224.914062 392.683594 C 226.160156 393.132812 227.441406 393.34375 228.734375 393.34375 C 232.96875 393.34375 237.269531 391.039062 240.519531 387.167969 C 242.152344 385.222656 243.523438 382.886719 244.476562 380.238281 C 246.699219 374.058594 246.132812 367.734375 243.445312 363.328125 C 243.003906 362.605469 242.503906 361.933594 241.953125 361.320312 " fill-opacity="1" fill-rule="nonzero"/><path fill="#ffffff" d="M 222.355469 383.105469 C 222.566406 383.179688 222.777344 383.238281 222.992188 383.289062 C 223.0625 383.304688 223.109375 383.3125 223.152344 383.324219 C 223.355469 383.363281 223.558594 383.398438 223.765625 383.417969 C 223.777344 383.417969 223.789062 383.417969 223.800781 383.421875 C 223.96875 383.433594 224.136719 383.441406 224.304688 383.441406 C 224.347656 383.441406 224.390625 383.4375 224.429688 383.4375 C 224.511719 383.433594 224.59375 383.429688 224.679688 383.425781 C 224.824219 383.414062 224.972656 383.402344 225.117188 383.382812 C 225.203125 383.371094 225.285156 383.359375 225.371094 383.34375 C 225.523438 383.316406 225.671875 383.285156 225.824219 383.246094 C 225.898438 383.226562 225.972656 383.210938 226.046875 383.191406 C 226.175781 383.15625 226.304688 383.109375 226.433594 383.066406 C 226.5 383.042969 226.570312 383.019531 226.636719 382.996094 C 226.664062 382.984375 226.6875 382.980469 226.714844 382.96875 C 226.933594 382.882812 227.152344 382.785156 227.367188 382.675781 C 227.433594 382.640625 227.5 382.605469 227.566406 382.566406 C 227.714844 382.488281 227.863281 382.40625 228.007812 382.316406 C 228.085938 382.265625 228.160156 382.214844 228.238281 382.164062 C 228.371094 382.078125 228.503906 381.984375 228.632812 381.886719 C 228.710938 381.832031 228.785156 381.773438 228.863281 381.714844 C 228.996094 381.609375 229.125 381.496094 229.257812 381.382812 C 229.320312 381.324219 229.386719 381.269531 229.449219 381.210938 C 229.625 381.046875 229.796875 380.875 229.964844 380.695312 C 229.980469 380.679688 229.992188 380.667969 230.007812 380.652344 C 230.1875 380.457031 230.359375 380.25 230.527344 380.039062 C 230.582031 379.96875 230.628906 379.898438 230.679688 379.832031 C 230.796875 379.679688 230.90625 379.527344 231.011719 379.367188 C 231.070312 379.28125 231.125 379.195312 231.179688 379.109375 C 231.277344 378.953125 231.371094 378.796875 231.464844 378.636719 C 231.515625 378.546875 231.566406 378.457031 231.617188 378.363281 C 231.710938 378.1875 231.796875 378.011719 231.882812 377.832031 C 231.921875 377.746094 231.964844 377.664062 232 377.578125 C 232.121094 377.3125 232.234375 377.039062 232.335938 376.757812 C 232.4375 376.476562 232.523438 376.191406 232.601562 375.90625 C 232.917969 374.789062 233.046875 373.671875 233.023438 372.605469 C 232.367188 373.925781 231.261719 374.832031 230.105469 375.066406 C 229.605469 375.167969 229.097656 375.144531 228.613281 374.972656 C 226.847656 374.335938 226.082031 371.976562 226.902344 369.699219 C 227.558594 367.878906 229.03125 366.664062 230.496094 366.578125 C 229.964844 366.117188 229.359375 365.753906 228.683594 365.507812 C 228.476562 365.433594 228.261719 365.375 228.050781 365.324219 C 227.996094 365.3125 227.941406 365.300781 227.886719 365.289062 C 227.683594 365.25 227.480469 365.214844 227.273438 365.199219 C 227.261719 365.195312 227.253906 365.195312 227.242188 365.195312 C 227.074219 365.179688 226.90625 365.171875 226.738281 365.171875 C 226.695312 365.171875 226.652344 365.175781 226.609375 365.175781 C 226.527344 365.179688 226.445312 365.183594 226.363281 365.191406 C 226.214844 365.199219 226.070312 365.214844 225.925781 365.234375 C 225.839844 365.246094 225.753906 365.257812 225.667969 365.269531 C 225.519531 365.296875 225.371094 365.332031 225.21875 365.367188 C 225.144531 365.386719 225.066406 365.402344 224.992188 365.425781 C 224.796875 365.476562 224.605469 365.542969 224.417969 365.613281 C 224.386719 365.625 224.355469 365.632812 224.324219 365.644531 C 224.105469 365.730469 223.890625 365.828125 223.675781 365.9375 C 223.605469 365.972656 223.539062 366.011719 223.46875 366.050781 C 223.324219 366.128906 223.179688 366.210938 223.035156 366.296875 C 222.957031 366.347656 222.878906 366.398438 222.796875 366.453125 C 222.667969 366.539062 222.539062 366.628906 222.410156 366.726562 C 222.332031 366.78125 222.253906 366.839844 222.175781 366.902344 C 222.046875 367.007812 221.917969 367.117188 221.789062 367.230469 C 221.722656 367.289062 221.65625 367.34375 221.589844 367.40625 C 221.417969 367.566406 221.246094 367.734375 221.082031 367.910156 C 221.066406 367.929688 221.046875 367.945312 221.03125 367.964844 C 220.855469 368.160156 220.679688 368.363281 220.515625 368.578125 C 220.460938 368.644531 220.410156 368.714844 220.359375 368.785156 C 220.246094 368.9375 220.132812 369.089844 220.027344 369.246094 C 219.96875 369.332031 219.914062 369.417969 219.859375 369.507812 C 219.761719 369.660156 219.667969 369.816406 219.578125 369.976562 C 219.523438 370.066406 219.472656 370.160156 219.421875 370.253906 C 219.332031 370.425781 219.242188 370.601562 219.15625 370.78125 C 219.117188 370.867188 219.078125 370.949219 219.039062 371.035156 C 218.917969 371.300781 218.808594 371.574219 218.707031 371.855469 C 216.957031 376.714844 218.59375 381.75 222.355469 383.105469 " fill-opacity="1" fill-rule="nonzero"/><path fill="#ffffff" d="M 254.320312 354.960938 C 254.824219 355.027344 255.300781 354.703125 255.578125 354.183594 C 255.6875 353.980469 255.769531 353.746094 255.800781 353.492188 C 255.917969 352.589844 255.449219 351.78125 254.75 351.691406 C 254.378906 351.644531 254.023438 351.808594 253.746094 352.105469 C 253.503906 352.371094 253.324219 352.734375 253.269531 353.160156 C 253.152344 354.0625 253.621094 354.867188 254.320312 354.960938 " fill-opacity="1" fill-rule="nonzero"/><path fill="#ffffff" d="M 247.496094 397.617188 C 247.617188 396.710938 247.144531 395.90625 246.445312 395.816406 C 245.746094 395.722656 245.082031 396.382812 244.964844 397.28125 C 244.847656 398.1875 245.316406 398.992188 246.015625 399.082031 C 246.714844 399.175781 247.378906 398.519531 247.496094 397.617188 " fill-opacity="1" fill-rule="nonzero"/><path fill="#ffffff" d="M 206.539062 397.28125 C 206.421875 398.1875 206.894531 398.992188 207.59375 399.082031 C 208.292969 399.175781 208.953125 398.519531 209.074219 397.617188 C 209.191406 396.710938 208.71875 395.90625 208.019531 395.816406 C 207.320312 395.722656 206.660156 396.382812 206.539062 397.28125 " fill-opacity="1" fill-rule="nonzero"/><g clip-path="url(#6a4d4dd318)"><path fill="#ffffff" d="M 217.378906 353.40625 L 218.941406 350.425781 L 220.195312 348.023438 L 220.761719 346.945312 C 222.851562 342.964844 225.769531 338.894531 231.546875 338.894531 L 254.855469 338.894531 L 184.605469 319.484375 L 166.53125 314.492188 C 165.730469 314.308594 164.875 314.210938 164.023438 314.210938 L 140.597656 314.210938 C 136.4375 314.210938 132.867188 317.175781 132.101562 321.261719 L 128.207031 342.09375 C 128.019531 343.105469 128.492188 344.121094 129.390625 344.621094 L 130.472656 345.214844 L 132.726562 346.449219 L 187.898438 376.726562 L 194.757812 380.488281 L 195.800781 381.058594 C 198.675781 382.65625 202.316406 381.625 203.925781 378.761719 L 204.324219 378.054688 L 206.695312 373.839844 L 207.066406 373.128906 L 216.6875 354.734375 L 217.378906 353.40625 " fill-opacity="1" fill-rule="nonzero"/></g><g fill="#ffffff" fill-opacity="1"><g transform="translate(281.072526, 391.694471)"><g><path d="M 45.703125 -14.515625 L 14.84375 -14.515625 L 8.453125 0 L -0.078125 0 L 26.203125 -58.0625 L 34.421875 -58.0625 L 60.796875 0 L 52.078125 0 Z M 42.796875 -21.15625 L 30.265625 -49.59375 L 17.75 -21.15625 Z M 42.796875 -21.15625 "/></g></g></g><g fill="#ffffff" fill-opacity="1"><g transform="translate(341.77522, 391.694471)"><g><path d="M 7.546875 -61.546875 L 15.515625 -61.546875 L 15.515625 0 L 7.546875 0 Z M 7.546875 -61.546875 "/></g></g></g><g fill="#ffffff" fill-opacity="1"><g transform="translate(364.911909, 391.694471)"><g><path d="M 7.546875 -61.546875 L 15.515625 -61.546875 L 15.515625 0 L 7.546875 0 Z M 7.546875 -61.546875 "/></g></g></g><g fill="#ffffff" fill-opacity="1"><g transform="translate(388.048599, 391.694471)"><g><path d="M 47.28125 -21.734375 C 47.28125 -21.117188 47.222656 -20.316406 47.109375 -19.328125 L 11.453125 -19.328125 C 11.941406 -15.453125 13.640625 -12.335938 16.546875 -9.984375 C 19.453125 -7.640625 23.0625 -6.46875 27.375 -6.46875 C 32.625 -6.46875 36.851562 -8.238281 40.0625 -11.78125 L 44.453125 -6.640625 C 42.460938 -4.316406 39.988281 -2.546875 37.03125 -1.328125 C 34.070312 -0.109375 30.769531 0.5 27.125 0.5 C 22.476562 0.5 18.359375 -0.453125 14.765625 -2.359375 C 11.171875 -4.265625 8.390625 -6.929688 6.421875 -10.359375 C 4.460938 -13.796875 3.484375 -17.671875 3.484375 -21.984375 C 3.484375 -26.234375 4.4375 -30.070312 6.34375 -33.5 C 8.25 -36.9375 10.875 -39.609375 14.21875 -41.515625 C 17.5625 -43.421875 21.335938 -44.375 25.546875 -44.375 C 29.742188 -44.375 33.488281 -43.421875 36.78125 -41.515625 C 40.070312 -39.609375 42.644531 -36.9375 44.5 -33.5 C 46.351562 -30.070312 47.28125 -26.148438 47.28125 -21.734375 Z M 25.546875 -37.65625 C 21.734375 -37.65625 18.539062 -36.492188 15.96875 -34.171875 C 13.394531 -31.847656 11.890625 -28.804688 11.453125 -25.046875 L 39.640625 -25.046875 C 39.203125 -28.753906 37.695312 -31.78125 35.125 -34.125 C 32.550781 -36.476562 29.359375 -37.65625 25.546875 -37.65625 Z M 25.546875 -37.65625 "/></g></g></g><g fill="#ffffff" fill-opacity="1"><g transform="translate(438.800035, 391.694471)"><g><path d="M 31.015625 -44.375 C 36.597656 -44.375 41.035156 -42.753906 44.328125 -39.515625 C 47.617188 -36.285156 49.265625 -31.546875 49.265625 -25.296875 L 49.265625 0 L 41.296875 0 L 41.296875 -24.390625 C 41.296875 -28.640625 40.273438 -31.84375 38.234375 -34 C 36.191406 -36.15625 33.257812 -37.234375 29.4375 -37.234375 C 25.125 -37.234375 21.722656 -35.972656 19.234375 -33.453125 C 16.753906 -30.941406 15.515625 -27.335938 15.515625 -22.640625 L 15.515625 0 L 7.546875 0 L 7.546875 -43.953125 L 15.171875 -43.953125 L 15.171875 -37.328125 C 16.773438 -39.585938 18.945312 -41.328125 21.6875 -42.546875 C 24.425781 -43.765625 27.535156 -44.375 31.015625 -44.375 Z M 31.015625 -44.375 "/></g></g></g><g fill="#ffffff" fill-opacity="1"><g transform="translate(495.273417, 391.694471)"><g><path d="M 47.765625 -30.109375 C 51.140625 -29.171875 53.796875 -27.46875 55.734375 -25 C 57.671875 -22.539062 58.640625 -19.429688 58.640625 -15.671875 C 58.640625 -10.640625 56.742188 -6.769531 52.953125 -4.0625 C 49.171875 -1.351562 43.65625 0 36.40625 0 L 8.703125 0 L 8.703125 -58.0625 L 34.75 -58.0625 C 41.382812 -58.0625 46.507812 -56.734375 50.125 -54.078125 C 53.75 -51.421875 55.5625 -47.742188 55.5625 -43.046875 C 55.5625 -40.003906 54.859375 -37.375 53.453125 -35.15625 C 52.046875 -32.945312 50.148438 -31.265625 47.765625 -30.109375 Z M 17 -51.34375 L 17 -32.765625 L 34 -32.765625 C 38.257812 -32.765625 41.535156 -33.550781 43.828125 -35.125 C 46.128906 -36.695312 47.28125 -39.003906 47.28125 -42.046875 C 47.28125 -45.085938 46.128906 -47.394531 43.828125 -48.96875 C 41.535156 -50.550781 38.257812 -51.34375 34 -51.34375 Z M 36.078125 -6.71875 C 40.773438 -6.71875 44.3125 -7.488281 46.6875 -9.03125 C 49.070312 -10.582031 50.265625 -13.019531 50.265625 -16.34375 C 50.265625 -22.8125 45.535156 -26.046875 36.078125 -26.046875 L 17 -26.046875 L 17 -6.71875 Z M 36.078125 -6.71875 "/></g></g></g><g fill="#ffffff" fill-opacity="1"><g transform="translate(558.04928, 391.694471)"><g><path d="M 26.375 0.5 C 22.007812 0.5 18.082031 -0.46875 14.59375 -2.40625 C 11.113281 -4.34375 8.390625 -7.007812 6.421875 -10.40625 C 4.460938 -13.8125 3.484375 -17.671875 3.484375 -21.984375 C 3.484375 -26.296875 4.460938 -30.148438 6.421875 -33.546875 C 8.390625 -36.953125 11.113281 -39.609375 14.59375 -41.515625 C 18.082031 -43.421875 22.007812 -44.375 26.375 -44.375 C 30.738281 -44.375 34.648438 -43.421875 38.109375 -41.515625 C 41.566406 -39.609375 44.273438 -36.953125 46.234375 -33.546875 C 48.203125 -30.148438 49.1875 -26.296875 49.1875 -21.984375 C 49.1875 -17.671875 48.203125 -13.8125 46.234375 -10.40625 C 44.273438 -7.007812 41.566406 -4.34375 38.109375 -2.40625 C 34.648438 -0.46875 30.738281 0.5 26.375 0.5 Z M 26.375 -6.46875 C 29.195312 -6.46875 31.726562 -7.113281 33.96875 -8.40625 C 36.207031 -9.707031 37.960938 -11.535156 39.234375 -13.890625 C 40.503906 -16.242188 41.140625 -18.941406 41.140625 -21.984375 C 41.140625 -25.023438 40.503906 -27.71875 39.234375 -30.0625 C 37.960938 -32.414062 36.207031 -34.226562 33.96875 -35.5 C 31.726562 -36.769531 29.195312 -37.40625 26.375 -37.40625 C 23.550781 -37.40625 21.019531 -36.769531 18.78125 -35.5 C 16.539062 -34.226562 14.769531 -32.414062 13.46875 -30.0625 C 12.175781 -27.71875 11.53125 -25.023438 11.53125 -21.984375 C 11.53125 -18.941406 12.175781 -16.242188 13.46875 -13.890625 C 14.769531 -11.535156 16.539062 -9.707031 18.78125 -8.40625 C 21.019531 -7.113281 23.550781 -6.46875 26.375 -6.46875 Z M 26.375 -6.46875 "/></g></g></g><g fill="#ffffff" fill-opacity="1"><g transform="translate(610.708021, 391.694471)"><g><path d="M 32.265625 -2.578125 C 31.097656 -1.578125 29.65625 -0.8125 27.9375 -0.28125 C 26.226562 0.238281 24.460938 0.5 22.640625 0.5 C 18.210938 0.5 14.78125 -0.6875 12.34375 -3.0625 C 9.914062 -5.445312 8.703125 -8.847656 8.703125 -13.265625 L 8.703125 -37.40625 L 1.25 -37.40625 L 1.25 -43.953125 L 8.703125 -43.953125 L 8.703125 -53.578125 L 16.671875 -53.578125 L 16.671875 -43.953125 L 29.28125 -43.953125 L 29.28125 -37.40625 L 16.671875 -37.40625 L 16.671875 -13.609375 C 16.671875 -11.222656 17.265625 -9.394531 18.453125 -8.125 C 19.640625 -6.851562 21.335938 -6.21875 23.546875 -6.21875 C 25.984375 -6.21875 28.0625 -6.910156 29.78125 -8.296875 Z M 32.265625 -2.578125 "/></g></g></g><g fill="#ffffff" fill-opacity="1"><g transform="translate(521.286695, 444.440386)"><g><path d="M 24.890625 -24.4375 L 14.171875 0 L 10.71875 0 L -0.03125 -24.4375 L 3.734375 -24.4375 L 12.53125 -4.359375 L 21.390625 -24.4375 Z M 24.890625 -24.4375 "/></g></g></g><g fill="#ffffff" fill-opacity="1"><g transform="translate(546.131078, 444.440386)"><g><path d="M 3.671875 -24.4375 L 7.15625 -24.4375 L 7.15625 0 L 3.671875 0 Z M 3.671875 -24.4375 "/></g></g></g><g fill="#ffffff" fill-opacity="1"><g transform="translate(556.948147, 444.440386)"><g><path d="M 10.78125 0.28125 C 8.945312 0.28125 7.171875 -0.00390625 5.453125 -0.578125 C 3.742188 -1.148438 2.40625 -1.890625 1.4375 -2.796875 L 2.71875 -5.515625 C 3.65625 -4.679688 4.847656 -4 6.296875 -3.46875 C 7.753906 -2.945312 9.25 -2.6875 10.78125 -2.6875 C 12.8125 -2.6875 14.328125 -3.03125 15.328125 -3.71875 C 16.328125 -4.40625 16.828125 -5.316406 16.828125 -6.453125 C 16.828125 -7.296875 16.550781 -7.976562 16 -8.5 C 15.457031 -9.019531 14.785156 -9.421875 13.984375 -9.703125 C 13.179688 -9.984375 12.046875 -10.296875 10.578125 -10.640625 C 8.734375 -11.085938 7.25 -11.53125 6.125 -11.96875 C 5 -12.414062 4.035156 -13.097656 3.234375 -14.015625 C 2.429688 -14.929688 2.03125 -16.171875 2.03125 -17.734375 C 2.03125 -19.035156 2.367188 -20.207031 3.046875 -21.25 C 3.734375 -22.300781 4.773438 -23.140625 6.171875 -23.765625 C 7.566406 -24.398438 9.300781 -24.71875 11.375 -24.71875 C 12.820312 -24.71875 14.242188 -24.53125 15.640625 -24.15625 C 17.035156 -23.78125 18.234375 -23.242188 19.234375 -22.546875 L 18.078125 -19.75 C 17.054688 -20.40625 15.960938 -20.898438 14.796875 -21.234375 C 13.640625 -21.578125 12.5 -21.75 11.375 -21.75 C 9.394531 -21.75 7.910156 -21.382812 6.921875 -20.65625 C 5.941406 -19.9375 5.453125 -19.007812 5.453125 -17.875 C 5.453125 -17.03125 5.726562 -16.347656 6.28125 -15.828125 C 6.84375 -15.304688 7.535156 -14.898438 8.359375 -14.609375 C 9.179688 -14.316406 10.304688 -14.007812 11.734375 -13.6875 C 13.566406 -13.238281 15.039062 -12.789062 16.15625 -12.34375 C 17.28125 -11.90625 18.242188 -11.234375 19.046875 -10.328125 C 19.847656 -9.421875 20.25 -8.203125 20.25 -6.671875 C 20.25 -5.390625 19.898438 -4.21875 19.203125 -3.15625 C 18.503906 -2.101562 17.441406 -1.265625 16.015625 -0.640625 C 14.597656 -0.0234375 12.851562 0.28125 10.78125 0.28125 Z M 10.78125 0.28125 "/></g></g></g><g fill="#ffffff" fill-opacity="1"><g transform="translate(578.617181, 444.440386)"><g><path d="M 3.671875 -24.4375 L 7.15625 -24.4375 L 7.15625 0 L 3.671875 0 Z M 3.671875 -24.4375 "/></g></g></g><g fill="#ffffff" fill-opacity="1"><g transform="translate(589.43425, 444.440386)"><g><path d="M 14.703125 0.28125 C 12.234375 0.28125 10.007812 -0.257812 8.03125 -1.34375 C 6.050781 -2.425781 4.492188 -3.921875 3.359375 -5.828125 C 2.234375 -7.734375 1.671875 -9.863281 1.671875 -12.21875 C 1.671875 -14.570312 2.234375 -16.703125 3.359375 -18.609375 C 4.492188 -20.515625 6.050781 -22.007812 8.03125 -23.09375 C 10.007812 -24.175781 12.234375 -24.71875 14.703125 -24.71875 C 17.140625 -24.71875 19.347656 -24.175781 21.328125 -23.09375 C 23.304688 -22.007812 24.851562 -20.519531 25.96875 -18.625 C 27.082031 -16.726562 27.640625 -14.59375 27.640625 -12.21875 C 27.640625 -9.84375 27.082031 -7.707031 25.96875 -5.8125 C 24.851562 -3.914062 23.304688 -2.425781 21.328125 -1.34375 C 19.347656 -0.257812 17.140625 0.28125 14.703125 0.28125 Z M 14.703125 -2.828125 C 16.492188 -2.828125 18.101562 -3.234375 19.53125 -4.046875 C 20.957031 -4.859375 22.082031 -5.976562 22.90625 -7.40625 C 23.738281 -8.84375 24.15625 -10.445312 24.15625 -12.21875 C 24.15625 -13.988281 23.738281 -15.585938 22.90625 -17.015625 C 22.082031 -18.441406 20.957031 -19.5625 19.53125 -20.375 C 18.101562 -21.195312 16.492188 -21.609375 14.703125 -21.609375 C 12.898438 -21.609375 11.269531 -21.195312 9.8125 -20.375 C 8.363281 -19.5625 7.226562 -18.441406 6.40625 -17.015625 C 5.582031 -15.585938 5.171875 -13.988281 5.171875 -12.21875 C 5.171875 -10.445312 5.582031 -8.84375 6.40625 -7.40625 C 7.226562 -5.976562 8.363281 -4.859375 9.8125 -4.046875 C 11.269531 -3.234375 12.898438 -2.828125 14.703125 -2.828125 Z M 14.703125 -2.828125 "/></g></g></g><g fill="#ffffff" fill-opacity="1"><g transform="translate(618.745038, 444.440386)"><g><path d="M 24.671875 -24.4375 L 24.671875 0 L 21.8125 0 L 7.15625 -18.21875 L 7.15625 0 L 3.671875 0 L 3.671875 -24.4375 L 6.53125 -24.4375 L 21.1875 -6.21875 L 21.1875 -24.4375 Z M 24.671875 -24.4375 "/></g></g></g></svg>