<svg version="1.2" xmlns="http://www.w3.org/2000/svg" viewBox="0 0 175 166" width="175" height="166">
	<title>5-svg</title>
	<defs>
		<clipPath clipPathUnits="userSpaceOnUse" id="cp1">
			<path d="m10.18 7.16h91.98v103.91h-91.98z"/>
		</clipPath>
		<clipPath clipPathUnits="userSpaceOnUse" id="cp2">
			<path d="m96.86 92h12.14v21h-12.14z"/>
		</clipPath>
		<clipPath clipPathUnits="userSpaceOnUse" id="cp3">
			<path d="m121.06 112.5h5.31v3h-5.31z"/>
		</clipPath>
		<clipPath clipPathUnits="userSpaceOnUse" id="cp4">
			<path d="m146.55 77.84h20.06v18.81h-20.06z"/>
		</clipPath>
		<clipPath clipPathUnits="userSpaceOnUse" id="cp5">
			<path d="m107 66.75h53v28.25h-53z"/>
		</clipPath>
	</defs>
	<style>
		.s0 { fill: #ffffff } 
	</style>
	<g id="Clip-Path" clip-path="url(#cp1)">
		<g>
			<path fill-rule="evenodd" class="s0" d="m102.2 42.3v37.9c0 7.8-6.4 14.1-14.2 14.1h-42.6c-0.9 0-1.9 0.3-2.6 1l-16.7 15.4c-0.3 0.2-0.7 0.4-1.1 0.4q-0.3 0-0.6-0.2c-0.6-0.2-1-0.8-1-1.4v-15.2c-7.4-0.5-13.2-6.5-13.2-14v-38c0-6.8 4.8-12.4 11.2-13.8l-2.8-9.8q-0.4 0.1-0.8 0.1-0.3 0-0.6-0.1c-1.6-0.1-3-0.9-4-2.1-1-1.2-1.4-2.7-1.3-4.2 0.4-3.2 3.2-5.5 6.4-5.2 1.6 0.2 3 0.9 4 2.1 1 1.2 1.4 2.7 1.3 4.3-0.2 2-1.5 3.7-3.2 4.5l2.9 10.2q0.5-0.1 1.1-0.1h63.6q1 0 1.9 0.2l2.9-10.3c-1.7-0.8-2.9-2.5-3.1-4.5-0.2-1.6 0.3-3.1 1.2-4.3 1-1.2 2.4-1.9 4-2.1 3.2-0.3 6.1 2 6.4 5.2 0.1 1.5-0.3 3-1.3 4.2-1 1.2-2.4 2-3.9 2.1q-0.3 0.1-0.6 0.1-0.5 0-0.9-0.1l-2.8 10c5.9 1.7 10.4 7.1 10.4 13.6zm-57.2 23.9c0 6.7 4.7 12.2 10.4 12.2 5.7 0 10.3-5.5 10.3-12.2 0-0.6-0.4-1-1-1-0.5 0-0.9 0.4-0.9 1 0 5.7-3.8 10.3-8.4 10.3-4.7 0-8.5-4.6-8.5-10.3 0-0.6-0.4-1-0.9-1-0.5 0-1 0.4-1 1zm-7.2-19c3.7 0 6.7 3.8 6.7 8.4 0 0.5 0.5 0.9 1 0.9 0.5 0 0.9-0.4 0.9-0.9 0-5.7-3.8-10.3-8.6-10.3-4.8 0-8.7 4.6-8.7 10.3 0 0.5 0.5 0.9 1 0.9 0.5 0 0.9-0.4 0.9-0.9 0-4.6 3.1-8.4 6.8-8.4zm43.1 8.4c0-5.7-3.9-10.3-8.6-10.3-4.8 0-8.7 4.6-8.7 10.3 0 0.5 0.4 0.9 1 0.9 0.5 0 0.9-0.4 0.9-0.9 0-4.6 3-8.4 6.8-8.4 3.7 0 6.7 3.8 6.7 8.4 0 0.5 0.4 0.9 1 0.9 0.5 0 0.9-0.4 0.9-0.9z"/>
		</g>
	</g>
	<path class="s0" d="m129 103.4v0.9c0.8-0.4 1.4-1.3 1.6-2.3-0.8 0-1.4 0.6-1.6 1.4z"/>
	<g id="Clip-Path" clip-path="url(#cp2)">
		<g>
			<path class="s0" d="m100.9 106.5h-0.1c-0.7-0.4-1.2-1.1-1.2-1.9v-4.2c0-1.1 1-2.1 2.1-2.1h4.9q0.7 0 1.3 0.3 0.1 0.1 0.2 0.1v-3.3c0-1.4-1.1-2.5-2.5-2.5h-6.2c-1.4 0-2.5 1.1-2.5 2.5v14.5c0 1.4 1.1 2.5 2.5 2.5h6.2c1.4 0 2.5-1.1 2.5-2.5v-1.5l-7.1-1.9z"/>
		</g>
	</g>
	<path class="s0" d="m118.4 104.9c-0.6-0.5-1-1.2-1.3-2.1-3.2-1-7.2-2.3-9-3q-0.4-0.1-0.6-0.2-0.4-0.2-0.9-0.2h-4.9q-0.3 0-0.6 0.2 0 0-0.1 0.1-0.1 0.1-0.1 0.2-0.2 0.1-0.2 0.3 0 0.1 0 0.2v4.2q0 0.1 0 0.3 0.1 0.1 0.1 0.2 0.2 0.3 0.5 0.4l6.8 1.8 10.4 2.8z"/>
	<path fill-rule="evenodd" class="s0" d="m130.3 99.6l3.5 2.1q0 0 0 0-0.2-0.1-0.5-0.1-0.6-0.2-1.4-0.4-0.4-0.1-0.7-0.2-0.1 0-0.3 0 0 0-0.1 0-0.1 0-0.2 0 0 0 0 0-0.1 0-0.1 0-0.1 0-0.1 0-0.2 0-0.3 0 0 0 0 0-0.1 0-0.2 0.1-0.1 0-0.1 0-0.1 0-0.2 0.1 0 0 0 0-0.1 0-0.2 0.1 0 0-0.1 0 0 0.1-0.1 0.1 0 0-0.1 0-0.1 0.1-0.1 0.2 0 0 0 0-0.1 0-0.1 0-0.1 0.1-0.2 0.2 0 0 0 0-0.1 0.1-0.1 0.2 0 0-0.1 0.1 0 0-0.1 0.1 0 0 0 0.1-0.1 0-0.1 0.1 0 0.1 0 0.1-0.1 0.1-0.1 0.2 0 0 0 0.1-0.1 0-0.1 0.1 0 0.1 0 0.1 0 0.1 0 0.1 0 0.1-0.1 0.2v7.2c-0.4 0.7-2.1 1.2-4.2 1.2q-0.6 0-1.2-0.1c-1.6-0.1-2.8-0.6-3.1-1.1v-0.1l-0.1-4.9c0 0 0-0.6 0-0.6q0 0 0 0-0.1 0-0.2-0.1 0 0-0.1 0 0-0.1-0.1-0.1-0.1 0-0.1-0.1-0.1 0-0.1-0.1-0.1 0-0.1 0-0.1-0.1-0.1-0.1-0.1-0.1-0.1-0.1 0-0.1-0.1-0.1 0 0 0-0.1-0.1 0-0.1-0.1-0.1 0-0.1-0.1 0 0-0.1-0.1 0-0.1-0.1-0.1 0-0.1 0-0.2-0.1 0-0.1-0.1 0-0.1-0.1-0.2 0 0 0-0.1 0 0-0.1-0.1 0 0 0-0.1 0 0 0-0.1-0.1-0.1-0.1-0.2 0-0.1 0-0.1 0-0.1-0.1-0.3 0 0 0-0.1 0-0.1 0-0.3 0 0 0 0c-0.1-1.4 0.4-2.6 1.1-3.2q0.4-0.3 0.9-0.4 0.1-0.1 0.3-0.1 0.1 0 0.2 0 0.1 0 0.1 0 0.1 0 0.2 0 0 0 0.1 0 0 0.1 0.1 0.1 0.1 0 0.1 0 0.1 0 0.2 0.1 0 0 0.1 0 0 0.1 0.1 0.1 0 0 0.1 0.1 0.1 0 0.1 0 0.1 0.1 0.1 0.1 0 0 0 0 0.1 0.1 0.1 0.1 0.1 0.1 0.1 0.1 0.1 0.1 0.1 0.1 0.1 0.1 0.1 0.1 0.1 0.1 0.1 0.1 0.1 0.1 0.1 0.2 0 0 0.1 0.1 0 0 0.1 0.1 0 0.1 0 0.2 0.1 0 0.1 0.1 0 0.1 0.1 0.1 0 0.1 0 0.2 0.1 0.1 0.1 0.1 0 0.1 0 0.2 0.1 0.1 0.1 0.2 0 0 0 0.1 0.1 0.1 0.1 0.2 0 0.1 0 0.1 0 0.1 0 0.2 0 0.1 0 0.2 0.1 0.9-0.2 1.7 0 0.1-0.1 0.3 0 0 0 0-0.1 0.3-0.2 0.5-0.3 0.4-0.6 0.6 0 0 0 0.1-0.2 0.1-0.4 0.3-0.1 0-0.2 0 0.2 0.1 0.4 0.1 0.1-0.1 0.2-0.1 0.3 0 0.5-0.1 0.3-0.1 0.6-0.3c0.9-0.7 1.5-1.9 1.4-3.4-0.2-2.1-1.6-3.7-3.1-3.6q-0.3 0-0.5 0.1-0.1 0-0.2 0.1c-0.4 0.1-0.7 0.2-0.7 0.2q0 0-0.1-0.3c-0.1-0.3-0.2-0.9-0.3-1.2-0.4-1.8-2.7-4.7-3.9-6.1l12 7.4zm-9.5 3.3c0.1-0.4 0.2-1 0.2-1.5q0 0 0 0 0-0.1 0-0.2 0-0.1 0-0.1-0.1-0.1-0.1-0.1 0-0.1 0-0.1 0-0.1 0-0.1 0-0.1-0.1-0.1 0-0.1 0-0.1 0-0.1 0-0.1 0-0.1-0.1-0.1 0-0.1 0-0.1 0-0.1-0.1-0.1 0-0.1 0-0.1 0 0-0.1-0.1 0 0 0 0 0-0.1-0.1-0.1 0-0.1 0-0.1 0 0-0.1-0.1 0 0 0 0-0.1-0.1-0.1-0.1 0 0-0.1 0 0-0.1 0-0.1-0.1 0-0.1 0 0-0.1-0.1-0.1 0 0 0 0-0.1 0-0.1-0.1 0 0-0.1 0 0 0 0 0-0.1 0-0.1 0 0 0-0.1 0 0 0-0.1 0 0-0.1-0.1 0-0.4 0-0.8 0.4-0.1 0.2-0.3 0.5 0 0.1-0.1 0.3 0 0.1 0 0.3-0.1 0.1-0.1 0.4 0 0.1 0 0.2 0 0.1 0 0.2 0 0.1 0 0.3 0 0 0 0 0 0.1 0.1 0.1 0 0 0 0.1 0 0 0 0.1 0 0 0 0.1 0 0 0 0.1 0.1 0 0.1 0.1 0 0 0 0.1 0 0 0.1 0.1 0 0 0 0.1 0 0 0 0.1 0.1 0 0.1 0 0 0.1 0 0.1 0 0 0 0 0.1 0.1 0.1 0.1 0 0 0 0.1 0.1 0 0.1 0 0 0.1 0.1 0.1 0 0 0 0.1 0.1 0 0.1 0 0 0.1 0 0.1 0.1 0 0.1 0 0 0.1 0.1 0.1 0 0 0 0 0 0 0 0 0.1 0.1 0.1 0.1 0 0 0.1 0 0 0 0.1 0 0 0 0 0.1 0.1 0 0.1 0 0 0 0.1 0 0 0 0 0 0.1 0 0.2 0 0 0 0.1 0 0.1-0.1 0.1-0.1 0.1 0 0.2 0 0.1-0.1 0.1-0.1 0.1-0.1 0.2-0.2 0 0 0.1-0.1 0.1-0.1 0.2-0.3 0 0 0.1-0.1z"/>
	<g id="Clip-Path" clip-path="url(#cp3)">
		<g>
			<path class="s0" d="m126.3 114.9v-2.4q-1.1 0.3-2.6 0.3c-1 0-1.9-0.1-2.6-0.3v2.4c0.3 0.4 1.3 0.7 2.6 0.7 1.3 0 2.4-0.3 2.6-0.7z"/>
		</g>
	</g>
	<path class="s0" d="m119.3 100.3c-0.3 0-0.6 0.5-0.6 1.1q0 0.1 0 0.2 0 0.4 0.2 0.7c0.1 0.3 0.4 0.5 0.6 0.5q0 0 0 0 0.2-0.1 0.3-0.2c0.2-0.3 0.3-0.7 0.3-1.1-0.1-0.7-0.5-1.2-0.8-1.2z"/>
	<g id="Clip-Path" clip-path="url(#cp4)">
		<g>
			<path class="s0" d="m165.4 78.9c-0.6-0.6-1.5-0.9-2.4-1q-0.1 0-0.3 0h-1.8c0 0-10.7 0-10.7 0q-0.3 0-0.7 0.1c-1.3 0.2-2.2 1.3-2.9 2.6h11.4q0.5 0 0.9 0.1 0.5 0.1 0.9 0.4c1 0.7 1.6 2 1.4 3.3l-2.3 12.2h0.4l0.3-0.5 6.7-11.9c0.7-1.3 0.7-2.8 0-4.1q-0.4-0.7-0.9-1.2z"/>
		</g>
	</g>
	<path class="s0" d="m141.6 103.1q-0.4 0-0.7 0-0.5-0.2-1-0.4c-1.1-0.7-1.7-2-1.5-3.4l0.5-2.7 0.5-2.3h-0.1q-0.3 0.6-0.9 1-0.5 0.3-1 0.4c-0.6 0-1.1-0.1-1.7-0.3l-0.6-0.4-1.1-0.6-2-1.1-3-1.7-19.6-10.7-0.5 2.5c-0.1 0.6 0 1.2 0.3 1.7q0.1 0.2 0.3 0.4 0.1 0.2 0.3 0.3 0.1 0.1 0.3 0.3 0.2 0.1 0.4 0.2l3.4 2.1 2.6 1.5 18.1 11.1 1 0.6 3.4 2.1q0.5 0.3 1 0.4 0.3 0 0.6 0h12.3c1.6 0 3-0.8 3.8-2-0.8 0.7-1.8 1-2.8 1z"/>
	<path fill-rule="evenodd" class="s0" d="m158.9 88.6l-1.3 6.8q-0.1 0.6-0.3 1.2c-1.1 2.9-3.8 4.8-7 4.8h-4.4c-1.1 0-2-0.3-2.9-0.8q-0.4-0.3-0.8-0.6c-0.9-0.9-1.5-2.1-1.6-3.4q-0.1-0.7 0.1-1.5l1-5.2 3.3-6.3c1.2-0.8 2.7-1.4 4.3-1.4h4.4c1.1 0 2.2 0.4 3 1q0.4 0.3 0.8 0.6c1.1 1.2 1.8 3 1.4 4.8zm-3.4-2.4q-0.3-0.5-0.7-0.8-0.9-1-2.1-1.5-0.9-0.3-1.9-0.3c-3 0-6 2.5-7.2 5.9-0.8 2.1-0.9 4.3-0.2 6.2q0.1 0.4 0.3 0.9 0.3 0.5 0.6 1 0.3 0.4 0.7 0.8 0.8 0.8 2 1.3 0.9 0.3 1.9 0.3c2.2 0 4.4-1.3 5.9-3.4q0.8-1.1 1.3-2.5c1-2.9 0.7-5.9-0.6-7.9z"/>
	<path class="s0" d="m154.3 86q-0.8-0.8-1.9-1.3-0.8-0.2-1.6-0.2c-2 0-4.1 1.3-5.5 3.4 0.8-0.7 1.8-1.2 2.7-1.2q0.6 0 1.1 0.2c1 0.4 1.8 1.2 2.1 2.3q0.1 0.1 0.1 0.3 0.2 0.6 0.2 1.3 0 0.9-0.4 1.8c-0.7 2-2.3 3.3-4.1 3.3q-0.5 0-1-0.2-0.1 0-0.1 0c-1-0.4-1.8-1.3-2.1-2.4 0.1 1.2 0.4 2.3 0.9 3.3q0.1 0.1 0.2 0.3 0.3 0.4 0.6 0.8 0.8 0.8 1.8 1.2 0.8 0.2 1.6 0.2c1.7 0 3.4-0.9 4.8-2.5 0.6-0.8 1.2-1.8 1.6-2.8 0.9-2.6 0.7-5.2-0.4-7q-0.3-0.4-0.6-0.8z"/>
	<path class="s0" d="m146.3 94.9q0.1 0.1 0.2 0.1 0 0 0.1 0 0.1 0.1 0.2 0.1 0 0 0 0 0.1 0 0.2 0 0.1 0 0.1 0 0 0 0.1 0 0.1 0 0.2-0.1 0 0 0.1 0 0.1 0 0.2 0 0 0 0.1 0 0-0.1 0.1-0.1 0.1 0 0.1 0 0 0 0 0 0.2-0.1 0.3-0.1 0-0.1 0.1-0.1 0.1 0 0.2-0.1 0 0 0.1 0 0-0.1 0.1-0.2 0.1 0 0.1 0 0.1-0.1 0.2-0.2 0 0 0 0 0.2-0.1 0.3-0.3 0 0 0 0 0.1-0.1 0.2-0.2 0-0.1 0.1-0.1 0-0.1 0.1-0.2 0 0 0.1-0.1 0-0.1 0.1-0.2 0 0 0-0.1 0.1-0.1 0.1-0.2 0.1-0.1 0.1-0.1 0.1-0.2 0.1-0.4 0.1-0.1 0.1-0.3 0.2-0.7 0.2-1.4c-0.3 0.6-0.7 1-1.2 1q-0.3 0.1-0.6 0c-0.7-0.2-1-1.2-0.7-2.1 0.3-0.8 0.9-1.3 1.5-1.3q-0.3-0.3-0.8-0.5-0.1 0-0.2 0-0.1 0-0.1-0.1-0.1 0-0.2 0 0 0-0.1 0-0.1 0-0.2 0 0 0 0 0-0.1 0-0.1 0-0.1 0-0.2 0 0 0-0.1 0-0.1 0.1-0.2 0.1 0 0-0.1 0-0.1 0-0.2 0.1 0 0 0 0-0.2 0-0.3 0.1-0.1 0-0.1 0.1-0.1 0-0.2 0.1 0 0-0.1 0-0.1 0.1-0.1 0.1-0.1 0.1-0.1 0.1-0.1 0.1-0.2 0.1 0 0.1-0.1 0.1-0.1 0.1-0.2 0.2 0 0 0 0-0.1 0.2-0.2 0.3 0 0-0.1 0.1 0 0.1-0.1 0.2 0 0-0.1 0.1 0 0.1-0.1 0.2 0 0 0 0.1-0.1 0.1-0.2 0.2 0 0 0 0.1-0.1 0.2-0.1 0.3c-0.8 2-0.1 4.1 1.4 4.6z"/>
	<path class="s0" d="m159.3 83.4c0.2 0.1 0.4-0.1 0.5-0.3q0.1-0.1 0.1-0.3c0.1-0.3-0.1-0.7-0.4-0.7q-0.2 0-0.4 0.2-0.2 0.1-0.2 0.4c-0.1 0.4 0.1 0.7 0.4 0.7z"/>
	<path class="s0" d="m156.5 100.9c0.1-0.4-0.1-0.7-0.4-0.8-0.3 0-0.6 0.3-0.6 0.6-0.1 0.4 0.1 0.7 0.4 0.8 0.3 0 0.6-0.3 0.6-0.6z"/>
	<path class="s0" d="m139.8 100.7c-0.1 0.4 0.1 0.7 0.4 0.8 0.3 0 0.6-0.3 0.6-0.6 0.1-0.4-0.1-0.7-0.4-0.8-0.3 0-0.6 0.3-0.6 0.6z"/>
	<g id="Clip-Path" clip-path="url(#cp5)">
		<g>
			<path class="s0" d="m144.2 82.8l0.7-1.2 0.5-1 0.2-0.5c0.9-1.6 2-3.2 4.4-3.2h9.5l-28.7-8-7.4-2q-0.5-0.1-1-0.1h-9.6c-1.7 0-3.1 1.2-3.5 2.8l-1.5 8.6c-0.1 0.4 0.1 0.8 0.4 1l0.5 0.2 0.9 0.5 22.6 12.4 2.8 1.6 0.4 0.2c1.2 0.7 2.7 0.2 3.3-0.9l0.2-0.3 0.9-1.8 0.2-0.2 3.9-7.6z"/>
		</g>
	</g>
	<g>
		<g>
			<g>
				<path fill-rule="evenodd" class="s0" d="m30.5 133.1h-10.8l-2.3 5.1h-3l9.2-20.3h2.9l9.2 20.3h-3zm-1-2.3l-4.4-10-4.4 10z"/>
			</g>
		</g>
	</g>
	<g>
		<g>
			<g>
				<path class="s0" d="m38.3 116.7h2.8v21.5h-2.8z"/>
			</g>
		</g>
	</g>
	<g>
		<g>
			<g>
				<path class="s0" d="m46.4 116.7h2.8v21.5h-2.8z"/>
			</g>
		</g>
	</g>
	<g>
		<g>
			<g>
				<path fill-rule="evenodd" class="s0" d="m68.4 130.6q0 0.3-0.1 0.8h-12.4q0.2 2 1.8 3.3 1.5 1.2 3.7 1.2 2.8 0 4.5-1.8l1.5 1.8q-1 1.2-2.6 1.8-1.5 0.6-3.4 0.6-2.5 0-4.4-1-1.8-0.9-2.9-2.7-1-1.8-1-4.1 0-2.2 1-4 1-1.8 2.7-2.8 1.8-1 4-1 2.2 0 3.9 1 1.8 1 2.7 2.8 1 1.8 1 4.1zm-7.6-5.6q-2 0-3.3 1.2-1.4 1.2-1.6 3.2h9.8q-0.2-1.9-1.5-3.2-1.4-1.2-3.4-1.2z"/>
			</g>
		</g>
	</g>
	<g>
		<g>
			<g>
				<path class="s0" d="m80.5 122.7q2.9 0 4.6 1.7 1.7 1.7 1.7 4.9v8.9h-2.7v-8.6q0-2.2-1.1-3.3-1.1-1.1-3.1-1.1-2.3 0-3.6 1.3-1.3 1.3-1.3 3.8v7.9h-2.7v-15.4h2.6v2.3q0.9-1.2 2.3-1.8 1.4-0.6 3.3-0.6z"/>
			</g>
		</g>
	</g>
	<g>
		<g>
			<g>
				<path fill-rule="evenodd" class="s0" d="m106.1 127.6q1.7 0.5 2.7 1.8 1.1 1.3 1.1 3.3 0 2.6-2 4.1-2 1.4-5.8 1.4h-9.7v-20.3h9.1q3.5 0 5.4 1.4 1.9 1.4 1.9 3.8 0 1.6-0.8 2.8-0.7 1.1-1.9 1.7zm-10.8-7.4v6.5h6q2.2 0 3.4-0.8 1.2-0.8 1.2-2.4 0-1.6-1.2-2.4-1.2-0.9-3.4-0.9zm6.6 15.6q2.5 0 3.7-0.8 1.3-0.8 1.3-2.5 0-3.4-5-3.4h-6.6v6.7z"/>
			</g>
		</g>
	</g>
	<g>
		<g>
			<g>
				<path fill-rule="evenodd" class="s0" d="m120.5 138.3q-2.3 0-4.1-1-1.8-1-2.8-2.8-1.1-1.7-1.1-4 0-2.3 1.1-4.1 1-1.7 2.8-2.7 1.8-1 4.1-1 2.3 0 4.1 1 1.8 1 2.9 2.7 1 1.8 1 4.1 0 2.3-1 4-1.1 1.8-2.9 2.8-1.8 1-4.1 1zm0-2.4q1.5 0 2.7-0.7 1.2-0.6 1.8-1.9 0.7-1.2 0.7-2.8 0-1.6-0.7-2.8-0.6-1.3-1.8-1.9-1.2-0.7-2.7-0.7-1.4 0-2.6 0.7-1.2 0.6-1.9 1.9-0.7 1.2-0.7 2.8 0 1.6 0.7 2.8 0.7 1.3 1.9 1.9 1.2 0.7 2.6 0.7z"/>
			</g>
		</g>
	</g>
	<g>
		<g>
			<g>
				<path class="s0" d="m141 137.3q-0.6 0.5-1.5 0.8-0.9 0.2-1.9 0.2-2.3 0-3.6-1.2-1.2-1.2-1.2-3.6v-8.4h-2.6v-2.3h2.6v-3.4h2.7v3.4h4.5v2.3h-4.5v8.3q0 1.3 0.7 1.9 0.6 0.7 1.8 0.7 1.2 0 2.1-0.7z"/>
			</g>
		</g>
	</g>
	<g>
		<g>
			<g>
				<path class="s0" d="m104.5 148l-3.7 8.6h-1.2l-3.8-8.6h1.4l3 7 3.1-7z"/>
			</g>
		</g>
	</g>
	<g>
		<g>
			<g>
				<path class="s0" d="m105.8 148h1.2v8.6h-1.2z"/>
			</g>
		</g>
	</g>
	<g>
		<g>
			<g>
				<path class="s0" d="m112.1 156.6q-1 0-1.9-0.2-0.9-0.3-1.4-0.8l0.5-1q0.4 0.5 1.2 0.8 0.8 0.2 1.6 0.2 1 0 1.6-0.3 0.5-0.4 0.5-1 0-0.4-0.3-0.7-0.3-0.3-0.7-0.4-0.4-0.2-1.2-0.4-1-0.2-1.5-0.4-0.6-0.3-1.1-0.7-0.4-0.5-0.4-1.3 0-0.7 0.4-1.3 0.3-0.5 1.1-0.9 0.7-0.3 1.8-0.3 0.7 0 1.5 0.2 0.7 0.2 1.2 0.6l-0.4 0.9q-0.5-0.3-1.1-0.5-0.6-0.2-1.2-0.2-1.1 0-1.6 0.4-0.5 0.4-0.5 1 0 0.4 0.3 0.7 0.3 0.3 0.7 0.4 0.5 0.2 1.2 0.4 1 0.2 1.6 0.4 0.5 0.3 1 0.7 0.4 0.5 0.4 1.3 0 0.7-0.4 1.3-0.3 0.5-1.1 0.8-0.7 0.4-1.8 0.3z"/>
			</g>
		</g>
	</g>
	<g>
		<g>
			<g>
				<path class="s0" d="m117.2 148h1.2v8.6h-1.2z"/>
			</g>
		</g>
	</g>
	<g>
		<g>
			<g>
				<path fill-rule="evenodd" class="s0" d="m124.8 156.6q-1.3 0-2.3-0.5-1.1-0.6-1.7-1.6-0.6-1-0.6-2.2 0-1.2 0.6-2.2 0.6-1 1.7-1.6 1-0.6 2.3-0.6 1.3 0 2.3 0.6 1.1 0.6 1.6 1.6 0.6 0.9 0.6 2.2 0 1.2-0.6 2.2-0.5 1-1.6 1.6-1 0.5-2.3 0.5zm0-1q0.9 0 1.7-0.5 0.7-0.4 1.2-1.1 0.4-0.8 0.4-1.7 0-0.9-0.4-1.7-0.5-0.7-1.2-1.2-0.8-0.4-1.7-0.4-0.9 0-1.7 0.4-0.8 0.5-1.2 1.2-0.4 0.8-0.4 1.7 0 0.9 0.4 1.7 0.4 0.7 1.2 1.1 0.8 0.5 1.7 0.5z"/>
			</g>
		</g>
	</g>
	<g>
		<g>
			<g>
				<path class="s0" d="m138.5 148v8.6h-1l-5.1-6.4v6.4h-1.2v-8.6h1l5.1 6.4v-6.4z"/>
			</g>
		</g>
	</g>
</svg>